<svg viewBox="0 0 220 220" fill="none" xmlns="http://www.w3.org/2000/svg">
<g id="Wotrald">
<rect id="Rectangle 1" width="220" height="220" fill="transparent"/>
<g id="Group 1">
<g id="globe-svg">
<path id="Vector" d="M148.437 63C148.437 41.7716 131.228 24.5627 110 24.5627C88.7716 24.5627 71.5625 41.7716 71.5625 63C71.5625 76.9023 78.9431 89.0807 90 95.8306C95.8266 99.3876 102.674 101.437 110 101.437C131.229 101.437 148.437 84.2283 148.437 63Z" fill="white"/>
<g id="Group">
<path id="Vector_2" d="M100.033 67.1476L74.6388 78.0896C77.7969 85.4807 83.2035 91.6814 90 95.8306C93.7242 98.1042 97.866 99.7606 102.283 100.661L102.674 100.382L105.465 95.3152H107.663C110.116 95.3152 112.104 93.3267 112.104 90.8738V88.7171C112.104 87.7749 112.404 86.8572 112.96 86.0966L106.873 77.006L100.033 67.1476Z" fill="white"/>
<path id="Vector_3" d="M110 24.5627C102.597 24.5627 95.6845 26.6573 89.8186 30.2836V31.2632L99.3658 34.8954C100.215 35.2184 100.763 36.0459 100.731 36.9534C101.5 39.1652 104.047 40.1866 106.131 39.1188L108.205 38.0229C114.23 34.8398 121.355 39.7182 120.567 46.4866L120.547 46.6513C120.354 48.3155 119.173 49.6429 117.587 50.0172C116.555 50.2608 115.38 50.541 114.373 50.7816C112.914 51.1305 111.79 52.2947 111.493 53.7655L110.153 60.4044C109.681 62.7369 111.415 64.935 113.793 65.0206L115.514 65.0825C116.009 65.1003 116.496 65.2134 116.949 65.4158L126.23 76.1965L125.243 87.8928C125.015 91.4822 127.21 94.2809 130.08 95.3703L130.631 95.4356C141.337 88.6122 148.438 76.6357 148.438 63C148.438 41.7716 131.229 24.5627 110 24.5627Z" fill="white"/>
</g>
<path id="Vector_4" d="M100 69.8889C100 62.0361 93.6341 55.6702 85.7812 55.6702C77.9284 55.6702 71.5625 62.0361 71.5625 69.8889C71.5625 73.2929 72.7594 76.4173 74.7544 78.8651H74.7534L85.7812 92.9999L96.7564 78.9391H96.7481C98.7795 76.4804 100 73.3273 100 69.8889Z" fill="#F5B955"/>
<path id="Vector_5" d="M85.7812 77.6154C89.9234 77.6154 93.2813 74.2576 93.2813 70.1154C93.2813 65.9733 89.9234 62.6155 85.7812 62.6155C81.6391 62.6155 78.2812 65.9733 78.2812 70.1154C78.2812 74.2576 81.6391 77.6154 85.7812 77.6154Z" fill="white"/>
<path id="Vector_6" d="M148.437 36.0989C148.437 29.7275 143.272 24.5625 136.901 24.5625C130.53 24.5625 125.365 29.7275 125.365 36.0989C125.365 38.8609 126.336 41.3957 127.955 43.3818H127.954L136.901 54.8502L145.806 43.442H145.799C147.447 41.447 148.437 38.8885 148.437 36.0989Z" fill="#5A74FF"/>
<path id="Vector_7" d="M136.902 41.3031C139.674 41.3031 141.922 39.0554 141.922 36.2828C141.922 33.5101 139.674 31.2625 136.902 31.2625C134.129 31.2625 131.881 33.5101 131.881 36.2828C131.881 39.0554 134.129 41.3031 136.902 41.3031Z" fill="white"/>
<path id="Vector_8" d="M72.3567 55.033C72.4856 55.0657 72.6149 55.0813 72.742 55.0813C73.44 55.0813 74.0759 54.6102 74.2555 53.9027L74.3092 53.6932C74.5272 52.858 74.0269 52.0046 73.1919 51.7868C72.3569 51.569 71.5034 52.0691 71.2855 52.9039C71.2655 52.9805 71.2458 53.0574 71.2264 53.1343C71.0142 53.9707 71.5203 54.8207 72.3567 55.033Z" fill="black"/>
<path id="Vector_9" d="M74.5469 48.0423C74.7622 48.1438 74.9889 48.1918 75.212 48.1918C75.7981 48.1918 76.36 47.8605 76.6264 47.2954C79.4544 41.2965 83.8141 36.2884 89.1028 32.6514C89.1544 32.6779 89.2075 32.7025 89.263 32.7236L98.81 36.3556C99.0336 36.4407 99.1778 36.6584 99.1692 36.8973C99.1624 37.0906 99.1914 37.2837 99.2549 37.4665C99.7699 38.9479 100.9 40.1326 102.356 40.7163C103.812 41.2999 105.447 41.2245 106.843 40.5095C106.849 40.5065 106.855 40.5035 106.861 40.5004L108.935 39.4045C111.242 38.1857 113.905 38.3378 116.058 39.812C118.211 41.2862 119.316 43.7137 119.014 46.306L118.995 46.4705C118.878 47.4755 118.185 48.2707 117.228 48.4965C116.195 48.7405 115.018 49.0208 114.01 49.2619C111.967 49.7505 110.378 51.3968 109.962 53.4561L108.621 60.095C108.305 61.6572 108.69 63.2709 109.677 64.5225C110.664 65.7741 112.144 66.5247 113.737 66.582L115.458 66.6439C115.754 66.6545 116.041 66.7214 116.311 66.8423C116.518 66.935 116.735 66.9789 116.948 66.9789C117.545 66.9787 118.116 66.6344 118.375 66.0537C118.728 65.2659 118.375 64.3417 117.587 63.9895C116.948 63.7039 116.269 63.5462 115.57 63.5211L113.849 63.4592C113.175 63.435 112.549 63.1173 112.131 62.5875C111.713 62.0578 111.55 61.3749 111.684 60.7138L113.025 54.0749C113.201 53.2043 113.873 52.508 114.737 52.3013C115.743 52.0608 116.916 51.7813 117.946 51.5379C120.164 51.0144 121.833 49.1233 122.1 46.8318L122.119 46.6673C122.557 42.9016 120.951 39.3751 117.823 37.2334C114.695 35.092 110.827 34.8706 107.475 36.6415L105.411 37.7323C104.813 38.0357 104.142 38.0656 103.519 37.8157C102.962 37.5923 102.531 37.18 102.288 36.6423C102.197 35.2132 101.281 33.9523 99.9216 33.435L92.4581 30.5956C97.7599 27.7209 103.773 26.1253 110 26.1253C114.064 26.1253 118.057 26.7816 121.867 28.0761C122.685 28.3537 123.572 27.9164 123.849 27.0992C124.127 26.2822 123.69 25.3947 122.873 25.117C118.738 23.7125 114.407 23.0002 110 23.0002C102.267 23.0002 94.7624 25.2109 88.2981 29.3936C82.0031 33.4667 76.9897 39.1962 73.7997 45.9627C73.4319 46.7434 73.7663 47.6744 74.5469 48.0423Z" fill="black"/>
<path id="Vector_10" d="M146.513 50.8553C145.684 51.0938 145.205 51.9594 145.443 52.7888C146.393 56.0925 146.875 59.528 146.875 63C146.875 66.7806 146.305 70.5082 145.182 74.079C144.923 74.9023 145.381 75.7795 146.204 76.0384C146.36 76.0874 146.518 76.1109 146.673 76.1109C147.337 76.1109 147.953 75.684 148.163 75.0168C149.382 71.142 150 67.099 150 63C150 59.2358 149.477 55.5097 148.447 51.9252C148.208 51.0958 147.342 50.6168 146.513 50.8553Z" fill="black"/>
<path id="Vector_11" d="M144.079 80.8965C143.42 80.506 142.432 80.6163 141.92 81.4759C141.917 81.4809 141.914 81.4859 141.911 81.491C141.408 82.3563 141.792 83.2734 142.453 83.6599C142.688 83.7969 142.963 83.871 143.243 83.871C143.754 83.871 144.282 83.6255 144.609 83.0685C145.117 82.2059 144.738 81.2868 144.079 80.8965Z" fill="black"/>
<path id="Vector_12" d="M139.692 87.4611C139.049 86.8857 138.061 86.9402 137.485 87.5833C135.35 89.9686 132.932 92.0413 130.306 93.7727C128.504 92.9591 126.617 91.0302 126.801 88.0072L127.787 76.3279C127.86 75.4681 127.222 74.7121 126.362 74.6395C125.503 74.5696 124.746 75.2051 124.673 76.0651L123.686 87.7615C123.685 87.7722 123.684 87.7832 123.684 87.794C123.487 90.8941 124.866 93.7811 127.254 95.5797C121.99 98.3667 116.073 99.8748 110 99.8748C108.3 99.8748 106.606 99.7561 104.931 99.5242L106.388 96.878H107.663C110.973 96.878 113.667 94.1847 113.667 90.8741V88.7174C113.667 88.1025 113.858 87.5152 114.221 87.0188C114.73 86.3221 114.578 85.3444 113.882 84.8352C113.185 84.3262 112.207 84.478 111.698 85.1749C110.942 86.2102 110.542 87.4352 110.542 88.7174V90.8741C110.542 92.4614 109.25 93.753 107.663 93.753H105.465C104.895 93.753 104.371 94.0628 104.096 94.5617L101.692 98.9281C98.3191 98.1508 95.0633 96.9031 92.0391 95.213C91.2853 94.7924 90.3338 95.0614 89.9128 95.8149C89.4919 96.5683 89.7613 97.52 90.5145 97.9409C96.4372 101.251 103.175 103 110 103C121.364 103 132.23 98.1405 139.814 89.6675C140.39 89.0244 140.335 88.0366 139.692 87.4611Z" fill="black"/>
<g id="Point-1">
<path id="Vector_13" d="M98.0503 79.8151C99.8913 77.5416 101.059 74.7928 101.433 71.9062L105.589 77.8971C105.893 78.3345 106.38 78.569 106.875 78.569C107.182 78.569 107.492 78.4785 107.764 78.2901C108.473 77.7982 108.649 76.8246 108.157 76.1156L101.316 66.2569C101.245 66.1542 101.163 66.064 101.073 65.9842C99.3311 59.1648 93.1358 54.1077 85.7813 54.1077C77.0795 54.1077 70 61.1872 70 69.8889C70 73.4929 71.2464 77.0148 73.5105 79.8118C73.5141 79.8166 73.5178 79.8215 73.5216 79.8263L84.5494 93.9611C84.8455 94.3406 85.2998 94.5625 85.7811 94.5625C86.2623 94.5625 86.7167 94.3408 87.0128 93.9614L97.988 79.9007C98.01 79.8726 98.0306 79.8441 98.0503 79.8151ZM95.4347 78.0934L85.7817 90.46L76.0164 77.9437C76.0002 77.9213 75.9833 77.8996 75.9658 77.8781C74.1339 75.6304 73.125 72.7932 73.125 69.8889C73.125 62.9103 78.8025 57.2327 85.7813 57.2327C92.76 57.2327 98.4375 62.9103 98.4375 69.8889C98.4375 72.8245 97.4097 75.6852 95.5436 77.944C95.5041 77.9918 95.4677 78.0418 95.4347 78.0934Z" fill="black"/>
<path id="Vector_14" d="M85.7812 61.0533C80.7842 61.0533 76.7188 65.1187 76.7188 70.1157C76.7188 75.1128 80.7842 79.1782 85.7812 79.1782C90.7783 79.1782 94.8438 75.1128 94.8438 70.1157C94.8438 65.1187 90.7784 61.0533 85.7812 61.0533ZM85.7812 76.0532C82.5073 76.0532 79.8437 73.3896 79.8437 70.1157C79.8437 66.8419 82.5073 64.1783 85.7812 64.1783C89.0552 64.1783 91.7188 66.8419 91.7188 70.1157C91.7188 73.3896 89.0553 76.0532 85.7812 76.0532Z" fill="black"/>
</g>
<g id="Point-2">
<path id="Vector_15" d="M136.901 42.8654C140.531 42.8654 143.483 39.9126 143.483 36.2829C143.483 32.6534 140.531 29.7006 136.901 29.7006C133.272 29.7006 130.319 32.6534 130.319 36.2829C130.319 39.9124 133.272 42.8654 136.901 42.8654ZM136.901 32.8256C138.807 32.8256 140.358 34.3765 140.358 36.2829C140.358 38.1893 138.807 39.7404 136.901 39.7404C134.995 39.7404 133.444 38.1893 133.444 36.2829C133.444 34.3765 134.995 32.8256 136.901 32.8256Z" fill="black"/>
<path id="Vector_16" d="M126.713 44.3312C126.716 44.3349 126.719 44.339 126.722 44.3429L135.669 55.8111C135.965 56.1906 136.42 56.4125 136.901 56.4125C136.901 56.4125 136.901 56.4125 136.901 56.4125C137.382 56.4125 137.837 56.1908 138.133 55.8114L147.038 44.4032C147.057 44.3787 147.075 44.3538 147.093 44.3283C148.968 42.007 150 39.0901 150 36.0989C150 28.8761 144.124 23 136.901 23C129.678 23 123.802 28.8761 123.802 36.0989C123.802 39.0885 124.835 42.0101 126.713 44.3312ZM136.901 26.125C142.401 26.125 146.875 30.5993 146.875 36.0989C146.875 38.4123 146.065 40.6665 144.595 42.4466C144.558 42.491 144.524 42.5371 144.493 42.5846L136.901 52.3102L129.214 42.4569C129.199 42.4359 129.182 42.4149 129.166 42.3946C127.722 40.6235 126.927 38.3876 126.927 36.0989C126.927 30.5993 131.401 26.125 136.901 26.125Z" fill="black"/>
</g>
<path id="Vector_17" d="M99.6788 87.4568L98.9724 87.7905C98.1921 88.1591 97.8585 89.0903 98.2269 89.8707C98.4938 90.4353 99.0552 90.766 99.6408 90.766C99.8644 90.766 100.092 90.7177 100.307 90.616L101.014 90.2822C101.794 89.9136 102.128 88.9824 101.759 88.2021C101.39 87.4219 100.459 87.0886 99.6788 87.4568Z" fill="black"/>
<path id="Vector_18" d="M136.901 62.703C136.038 62.703 135.339 63.4026 135.339 64.2655C135.339 64.467 135.327 64.6703 135.305 64.8694C135.208 65.7269 135.824 66.5004 136.682 66.5975C136.741 66.6042 136.8 66.6075 136.859 66.6075C137.643 66.6075 138.32 66.0183 138.41 65.2203C138.445 64.905 138.463 64.5839 138.463 64.2655C138.464 63.4025 137.764 62.703 136.901 62.703Z" fill="black"/>
<path id="Vector_19" d="M125.978 69.5625C125.115 69.5625 124.415 70.2622 124.415 71.125C124.415 71.9878 125.115 72.6875 125.978 72.6875H126.759C127.622 72.6875 128.321 71.9878 128.321 71.125C128.321 70.2622 127.622 69.5625 126.759 69.5625H125.978Z" fill="black"/>
<path id="Vector_20" d="M132.793 68.7931C132.622 68.8973 132.443 68.9926 132.26 69.077C131.477 69.4394 131.136 70.3683 131.499 71.1512C131.763 71.7218 132.328 72.0578 132.918 72.0578C133.137 72.0578 133.361 72.0112 133.573 71.9129C133.862 71.7792 134.146 71.6276 134.418 71.4623C135.155 71.0136 135.389 70.0523 134.94 69.3151C134.491 68.5783 133.53 68.3448 132.793 68.7931Z" fill="black"/>
<path id="Vector_21" d="M109.229 79.1753L108.81 79.8346C108.347 80.5629 108.562 81.5285 109.29 81.9916C109.55 82.157 109.84 82.2357 110.127 82.2357C110.643 82.2357 111.149 81.9796 111.447 81.5113L111.866 80.852C112.329 80.1237 112.114 79.1581 111.385 78.6949C110.658 78.232 109.692 78.4471 109.229 79.1753Z" fill="black"/>
<path id="Vector_22" d="M115.158 72.7615C114.43 72.2987 113.464 72.5136 113.001 73.2417L112.582 73.9009C112.119 74.6292 112.334 75.5948 113.062 76.0578C113.322 76.2231 113.612 76.302 113.899 76.302C114.416 76.302 114.921 76.0459 115.219 75.5776L115.638 74.9184C116.101 74.19 115.886 73.2245 115.158 72.7615Z" fill="black"/>
<path id="Vector_23" d="M106.036 84.4536L105.33 84.7874C104.55 85.156 104.216 86.0872 104.585 86.8676C104.851 87.4322 105.413 87.7629 105.998 87.7629C106.222 87.7629 106.449 87.7146 106.665 87.6129L107.371 87.2791C108.152 86.9105 108.485 85.9793 108.117 85.199C107.748 84.4187 106.817 84.0852 106.036 84.4536Z" fill="black"/>
<path id="Vector_24" d="M118.946 69.5625C118.083 69.5625 117.384 70.2622 117.384 71.125C117.384 71.9878 118.083 72.6875 118.946 72.6875H119.728C120.591 72.6875 121.29 71.9878 121.29 71.125C121.29 70.2622 120.591 69.5625 119.728 69.5625H118.946Z" fill="black"/>
</g>
<path id="Wotrald_2" d="M81.936 133.152L73.872 159H70.416L64.116 139.83C63.972 139.446 63.846 138.984 63.738 138.444C63.606 138.996 63.48 139.458 63.36 139.83L56.988 159H53.55L45.486 133.152H48.69C49.026 133.152 49.308 133.236 49.536 133.404C49.764 133.56 49.914 133.776 49.986 134.052L55.08 151.35C55.176 151.686 55.26 152.052 55.332 152.448C55.416 152.844 55.5 153.258 55.584 153.69C55.668 153.258 55.752 152.844 55.836 152.448C55.932 152.052 56.04 151.686 56.16 151.35L61.992 134.052C62.064 133.812 62.214 133.602 62.442 133.422C62.682 133.242 62.964 133.152 63.288 133.152H64.386C64.722 133.152 64.998 133.236 65.214 133.404C65.43 133.572 65.586 133.788 65.682 134.052L71.496 151.35C71.712 152.01 71.904 152.76 72.072 153.6C72.216 152.772 72.372 152.022 72.54 151.35L77.652 134.052C77.712 133.812 77.862 133.602 78.102 133.422C78.342 133.242 78.624 133.152 78.948 133.152H81.936ZM90.592 140.424C91.936 140.424 93.148 140.646 94.228 141.09C95.32 141.522 96.244 142.152 97 142.98C97.768 143.796 98.356 144.786 98.764 145.95C99.172 147.102 99.376 148.398 99.376 149.838C99.376 151.278 99.172 152.58 98.764 153.744C98.356 154.908 97.768 155.898 97 156.714C96.244 157.53 95.32 158.16 94.228 158.604C93.148 159.036 91.936 159.252 90.592 159.252C89.236 159.252 88.012 159.036 86.92 158.604C85.84 158.16 84.916 157.53 84.148 156.714C83.38 155.898 82.786 154.908 82.366 153.744C81.958 152.58 81.754 151.278 81.754 149.838C81.754 148.398 81.958 147.102 82.366 145.95C82.786 144.786 83.38 143.796 84.148 142.98C84.916 142.152 85.84 141.522 86.92 141.09C88.012 140.646 89.236 140.424 90.592 140.424ZM90.592 156.516C92.32 156.516 93.61 155.934 94.462 154.77C95.314 153.606 95.74 151.968 95.74 149.856C95.74 147.744 95.314 146.106 94.462 144.942C93.61 143.766 92.32 143.178 90.592 143.178C88.84 143.178 87.532 143.766 86.668 144.942C85.816 146.106 85.39 147.744 85.39 149.856C85.39 151.968 85.816 153.606 86.668 154.77C87.532 155.934 88.84 156.516 90.592 156.516ZM108.667 159.288C107.191 159.288 106.051 158.874 105.247 158.046C104.455 157.218 104.059 156.036 104.059 154.5V143.556H101.935C101.731 143.556 101.557 143.496 101.413 143.376C101.281 143.244 101.215 143.052 101.215 142.8V141.378L104.185 140.964L104.977 135.51C105.025 135.306 105.115 135.15 105.247 135.042C105.391 134.922 105.571 134.862 105.787 134.862H107.569V141H112.753V143.556H107.569V154.266C107.569 154.986 107.743 155.526 108.091 155.886C108.451 156.234 108.907 156.408 109.459 156.408C109.783 156.408 110.059 156.366 110.287 156.282C110.527 156.198 110.731 156.108 110.899 156.012C111.067 155.904 111.211 155.808 111.331 155.724C111.451 155.64 111.559 155.598 111.655 155.598C111.775 155.598 111.865 155.628 111.925 155.688C111.997 155.736 112.069 155.82 112.141 155.94L113.185 157.632C112.609 158.16 111.925 158.568 111.133 158.856C110.341 159.144 109.519 159.288 108.667 159.288ZM119.298 144.222C119.886 143.022 120.594 142.08 121.422 141.396C122.25 140.712 123.246 140.37 124.41 140.37C124.806 140.37 125.178 140.418 125.526 140.514C125.886 140.598 126.198 140.73 126.462 140.91L126.228 143.556C126.144 143.88 125.946 144.042 125.634 144.042C125.466 144.042 125.214 144.012 124.878 143.952C124.542 143.88 124.182 143.844 123.798 143.844C123.234 143.844 122.736 143.928 122.304 144.096C121.872 144.252 121.482 144.492 121.134 144.816C120.798 145.128 120.498 145.518 120.234 145.986C119.97 146.442 119.724 146.964 119.496 147.552V159H115.986V140.712H118.002C118.386 140.712 118.644 140.784 118.776 140.928C118.92 141.06 119.022 141.3 119.082 141.648L119.298 144.222ZM138.716 150.882C137.288 150.93 136.076 151.044 135.08 151.224C134.084 151.392 133.274 151.62 132.65 151.908C132.026 152.196 131.576 152.538 131.3 152.934C131.024 153.318 130.886 153.75 130.886 154.23C130.886 154.686 130.958 155.082 131.102 155.418C131.258 155.742 131.462 156.012 131.714 156.228C131.978 156.432 132.284 156.582 132.632 156.678C132.98 156.774 133.358 156.822 133.766 156.822C134.306 156.822 134.798 156.768 135.242 156.66C135.698 156.552 136.124 156.402 136.52 156.21C136.916 156.006 137.294 155.76 137.654 155.472C138.014 155.184 138.368 154.854 138.716 154.482V150.882ZM128.42 143.268C129.44 142.296 130.544 141.57 131.732 141.09C132.932 140.61 134.246 140.37 135.674 140.37C136.718 140.37 137.642 140.544 138.446 140.892C139.25 141.228 139.928 141.702 140.48 142.314C141.032 142.926 141.446 143.658 141.722 144.51C142.01 145.362 142.154 146.304 142.154 147.336V159H140.588C140.24 159 139.976 158.946 139.796 158.838C139.616 158.718 139.472 158.502 139.364 158.19L138.986 156.588C138.518 157.02 138.056 157.404 137.6 157.74C137.144 158.064 136.664 158.346 136.16 158.586C135.668 158.814 135.14 158.988 134.576 159.108C134.012 159.228 133.388 159.288 132.704 159.288C131.984 159.288 131.306 159.192 130.67 159C130.046 158.796 129.5 158.49 129.032 158.082C128.564 157.674 128.192 157.164 127.916 156.552C127.652 155.94 127.52 155.226 127.52 154.41C127.52 153.69 127.712 153 128.096 152.34C128.492 151.668 129.128 151.068 130.004 150.54C130.892 150.012 132.044 149.58 133.46 149.244C134.888 148.908 136.64 148.716 138.716 148.668V147.336C138.716 145.956 138.422 144.924 137.834 144.24C137.246 143.556 136.382 143.214 135.242 143.214C134.474 143.214 133.826 143.31 133.298 143.502C132.782 143.694 132.332 143.91 131.948 144.15C131.576 144.378 131.246 144.588 130.958 144.78C130.682 144.972 130.394 145.068 130.094 145.068C129.854 145.068 129.644 145.002 129.464 144.87C129.296 144.738 129.158 144.582 129.05 144.402L128.42 143.268ZM150.453 132.432V159H146.925V132.432H150.453ZM167.256 145.14C166.68 144.384 166.056 143.856 165.384 143.556C164.724 143.256 163.98 143.106 163.152 143.106C161.544 143.106 160.296 143.688 159.408 144.852C158.532 146.004 158.094 147.69 158.094 149.91C158.094 151.074 158.19 152.07 158.382 152.898C158.586 153.714 158.874 154.386 159.246 154.914C159.63 155.43 160.098 155.814 160.65 156.066C161.202 156.306 161.826 156.426 162.522 156.426C163.542 156.426 164.424 156.198 165.168 155.742C165.912 155.286 166.608 154.644 167.256 153.816V145.14ZM170.784 132.432V159H168.66C168.168 159 167.862 158.766 167.742 158.298L167.436 156.192C166.656 157.116 165.768 157.86 164.772 158.424C163.788 158.976 162.648 159.252 161.352 159.252C160.308 159.252 159.36 159.048 158.508 158.64C157.668 158.232 156.948 157.638 156.348 156.858C155.748 156.066 155.286 155.088 154.962 153.924C154.638 152.76 154.476 151.422 154.476 149.91C154.476 148.554 154.656 147.294 155.016 146.13C155.376 144.966 155.898 143.958 156.582 143.106C157.266 142.254 158.094 141.588 159.066 141.108C160.038 140.616 161.136 140.37 162.36 140.37C163.464 140.37 164.4 140.55 165.168 140.91C165.948 141.27 166.644 141.78 167.256 142.44V132.432H170.784Z" fill="white"/>
<path id="Turism and Travel Agency" d="M19.9023 181.795H15.8613V193H13.7643V181.795H9.71434V180.04H19.9023V181.795ZM27.3106 183.82V193H26.1406C25.8826 193 25.7176 192.877 25.6456 192.631L25.5016 191.776C25.3096 191.98 25.1056 192.166 24.8896 192.334C24.6796 192.502 24.4546 192.646 24.2146 192.766C23.9746 192.886 23.7166 192.979 23.4406 193.045C23.1706 193.111 22.8796 193.144 22.5676 193.144C22.0636 193.144 21.6196 193.06 21.2356 192.892C20.8516 192.724 20.5276 192.487 20.2636 192.181C20.0056 191.875 19.8106 191.509 19.6786 191.083C19.5466 190.651 19.4806 190.177 19.4806 189.661V183.82H21.4156V189.661C21.4156 190.279 21.5566 190.759 21.8386 191.101C22.1266 191.443 22.5616 191.614 23.1436 191.614C23.5696 191.614 23.9656 191.518 24.3316 191.326C24.7036 191.128 25.0516 190.858 25.3756 190.516V183.82H27.3106ZM31.4874 185.521C31.7754 184.939 32.1234 184.483 32.5314 184.153C32.9394 183.817 33.4284 183.649 33.9984 183.649C34.1964 183.649 34.3824 183.673 34.5564 183.721C34.7304 183.763 34.8864 183.829 35.0244 183.919L34.8894 185.377C34.8654 185.479 34.8264 185.551 34.7724 185.593C34.7244 185.629 34.6584 185.647 34.5744 185.647C34.4844 185.647 34.3554 185.632 34.1874 185.602C34.0194 185.566 33.8424 185.548 33.6564 185.548C33.3864 185.548 33.1464 185.587 32.9364 185.665C32.7324 185.743 32.5464 185.857 32.3784 186.007C32.2164 186.157 32.0724 186.34 31.9464 186.556C31.8204 186.772 31.7034 187.018 31.5954 187.294V193H29.6604V183.82H30.7854C30.9894 183.82 31.1304 183.859 31.2084 183.937C31.2864 184.009 31.3404 184.138 31.3704 184.324L31.4874 185.521ZM38.321 183.82V193H36.386V183.82H38.321ZM38.645 181.048C38.645 181.222 38.609 181.387 38.537 181.543C38.471 181.699 38.378 181.837 38.258 181.957C38.138 182.071 37.997 182.164 37.835 182.236C37.679 182.302 37.511 182.335 37.331 182.335C37.157 182.335 36.992 182.302 36.836 182.236C36.686 182.164 36.554 182.071 36.44 181.957C36.326 181.837 36.233 181.699 36.161 181.543C36.095 181.387 36.062 181.222 36.062 181.048C36.062 180.868 36.095 180.7 36.161 180.544C36.233 180.388 36.326 180.253 36.44 180.139C36.554 180.019 36.686 179.926 36.836 179.86C36.992 179.788 37.157 179.752 37.331 179.752C37.511 179.752 37.679 179.788 37.835 179.86C37.997 179.926 38.138 180.019 38.258 180.139C38.378 180.253 38.471 180.388 38.537 180.544C38.609 180.7 38.645 180.868 38.645 181.048ZM46.2332 185.485C46.1852 185.569 46.1312 185.629 46.0712 185.665C46.0112 185.701 45.9362 185.719 45.8462 185.719C45.7442 185.719 45.6332 185.689 45.5132 185.629C45.3932 185.563 45.2522 185.491 45.0902 185.413C44.9282 185.335 44.7362 185.266 44.5142 185.206C44.2982 185.14 44.0432 185.107 43.7492 185.107C43.5092 185.107 43.2902 185.137 43.0922 185.197C42.9002 185.251 42.7352 185.332 42.5972 185.44C42.4652 185.542 42.3632 185.665 42.2912 185.809C42.2192 185.947 42.1832 186.097 42.1832 186.259C42.1832 186.475 42.2492 186.655 42.3812 186.799C42.5132 186.943 42.6872 187.069 42.9032 187.177C43.1192 187.279 43.3652 187.372 43.6412 187.456C43.9172 187.54 44.1992 187.63 44.4872 187.726C44.7752 187.822 45.0572 187.933 45.3332 188.059C45.6092 188.185 45.8552 188.341 46.0712 188.527C46.2872 188.707 46.4612 188.929 46.5932 189.193C46.7252 189.451 46.7912 189.766 46.7912 190.138C46.7912 190.57 46.7132 190.969 46.5572 191.335C46.4012 191.701 46.1732 192.019 45.8732 192.289C45.5732 192.559 45.1982 192.769 44.7482 192.919C44.3042 193.069 43.7942 193.144 43.2182 193.144C42.9002 193.144 42.5912 193.114 42.2912 193.054C41.9972 193 41.7152 192.925 41.4452 192.829C41.1812 192.727 40.9322 192.607 40.6982 192.469C40.4702 192.331 40.2662 192.181 40.0862 192.019L40.5362 191.281C40.5902 191.191 40.6562 191.122 40.7342 191.074C40.8182 191.02 40.9202 190.993 41.0402 190.993C41.1662 190.993 41.2892 191.035 41.4092 191.119C41.5352 191.197 41.6792 191.284 41.8412 191.38C42.0092 191.476 42.2102 191.566 42.4442 191.65C42.6782 191.728 42.9692 191.767 43.3172 191.767C43.6052 191.767 43.8542 191.734 44.0642 191.668C44.2742 191.596 44.4482 191.5 44.5862 191.38C44.7242 191.26 44.8262 191.125 44.8922 190.975C44.9582 190.819 44.9912 190.654 44.9912 190.48C44.9912 190.246 44.9252 190.054 44.7932 189.904C44.6612 189.754 44.4842 189.625 44.2622 189.517C44.0462 189.409 43.7972 189.313 43.5152 189.229C43.2392 189.145 42.9572 189.055 42.6692 188.959C42.3812 188.863 42.0962 188.752 41.8142 188.626C41.5382 188.5 41.2892 188.341 41.0672 188.149C40.8512 187.951 40.6772 187.714 40.5452 187.438C40.4132 187.156 40.3472 186.814 40.3472 186.412C40.3472 186.046 40.4192 185.698 40.5632 185.368C40.7132 185.038 40.9292 184.747 41.2112 184.495C41.4992 184.243 41.8502 184.045 42.2642 183.901C42.6842 183.751 43.1672 183.676 43.7132 183.676C44.3312 183.676 44.8922 183.775 45.3962 183.973C45.9002 184.171 46.3232 184.441 46.6652 184.783L46.2332 185.485ZM48.6097 193V183.82H49.7797C50.0437 183.82 50.2117 183.943 50.2837 184.189L50.4097 184.99C50.5777 184.798 50.7517 184.624 50.9317 184.468C51.1117 184.306 51.3037 184.168 51.5077 184.054C51.7177 183.934 51.9397 183.841 52.1737 183.775C52.4137 183.709 52.6717 183.676 52.9477 183.676C53.2417 183.676 53.5117 183.718 53.7577 183.802C54.0037 183.886 54.2197 184.006 54.4057 184.162C54.5977 184.318 54.7627 184.507 54.9007 184.729C55.0387 184.951 55.1527 185.2 55.2427 185.476C55.3807 185.158 55.5547 184.885 55.7647 184.657C55.9747 184.429 56.2087 184.243 56.4667 184.099C56.7247 183.955 56.9977 183.85 57.2857 183.784C57.5797 183.712 57.8767 183.676 58.1767 183.676C58.6687 183.676 59.1067 183.754 59.4907 183.91C59.8807 184.066 60.2077 184.294 60.4717 184.594C60.7417 184.888 60.9457 185.251 61.0837 185.683C61.2217 186.115 61.2907 186.607 61.2907 187.159V193H59.3557V187.159C59.3557 186.511 59.2147 186.025 58.9327 185.701C58.6567 185.371 58.2457 185.206 57.6997 185.206C57.4537 185.206 57.2227 185.248 57.0067 185.332C56.7907 185.416 56.6017 185.539 56.4397 185.701C56.2777 185.863 56.1487 186.067 56.0527 186.313C55.9627 186.553 55.9177 186.835 55.9177 187.159V193H53.9827V187.159C53.9827 186.487 53.8477 185.995 53.5777 185.683C53.3077 185.365 52.9117 185.206 52.3897 185.206C52.0297 185.206 51.6967 185.299 51.3907 185.485C51.0847 185.665 50.8027 185.914 50.5447 186.232V193H48.6097ZM72.9385 188.986C72.2485 189.01 71.6665 189.067 71.1925 189.157C70.7185 189.241 70.3345 189.352 70.0405 189.49C69.7465 189.622 69.5335 189.781 69.4015 189.967C69.2755 190.153 69.2125 190.357 69.2125 190.579C69.2125 190.795 69.2455 190.981 69.3115 191.137C69.3835 191.287 69.4795 191.413 69.5995 191.515C69.7255 191.611 69.8695 191.683 70.0315 191.731C70.1995 191.773 70.3825 191.794 70.5805 191.794C71.0845 191.794 71.5165 191.701 71.8765 191.515C72.2425 191.323 72.5965 191.047 72.9385 190.687V188.986ZM67.8085 185.098C68.8465 184.132 70.0825 183.649 71.5165 183.649C72.0445 183.649 72.5125 183.736 72.9205 183.91C73.3345 184.078 73.6795 184.318 73.9555 184.63C74.2375 184.942 74.4505 185.314 74.5945 185.746C74.7445 186.172 74.8195 186.646 74.8195 187.168V193H73.9555C73.7695 193 73.6285 192.973 73.5325 192.919C73.4365 192.859 73.3555 192.742 73.2895 192.568L73.1005 191.821C72.8665 192.031 72.6355 192.22 72.4075 192.388C72.1795 192.55 71.9425 192.688 71.6965 192.802C71.4565 192.916 71.1955 193 70.9135 193.054C70.6375 193.114 70.3315 193.144 69.9955 193.144C69.6235 193.144 69.2755 193.093 68.9515 192.991C68.6335 192.889 68.3575 192.736 68.1235 192.532C67.8895 192.322 67.7035 192.064 67.5655 191.758C67.4335 191.452 67.3675 191.092 67.3675 190.678C67.3675 190.324 67.4605 189.979 67.6465 189.643C67.8385 189.307 68.1505 189.007 68.5825 188.743C69.0205 188.473 69.5935 188.251 70.3015 188.077C71.0155 187.903 71.8945 187.804 72.9385 187.78V187.168C72.9385 186.508 72.7975 186.016 72.5155 185.692C72.2335 185.368 71.8195 185.206 71.2735 185.206C70.9015 185.206 70.5895 185.254 70.3375 185.35C70.0855 185.44 69.8665 185.539 69.6805 185.647C69.4945 185.755 69.3295 185.857 69.1855 185.953C69.0415 186.043 68.8885 186.088 68.7265 186.088C68.5945 186.088 68.4805 186.055 68.3845 185.989C68.2945 185.917 68.2195 185.83 68.1595 185.728L67.8085 185.098ZM78.8952 185.035C79.0932 184.831 79.2972 184.648 79.5072 184.486C79.7232 184.318 79.9512 184.174 80.1912 184.054C80.4312 183.934 80.6862 183.841 80.9562 183.775C81.2262 183.709 81.5202 183.676 81.8382 183.676C82.3422 183.676 82.7832 183.76 83.1612 183.928C83.5452 184.096 83.8662 184.333 84.1242 184.639C84.3882 184.945 84.5862 185.314 84.7182 185.746C84.8502 186.172 84.9162 186.643 84.9162 187.159V193H82.9902V187.159C82.9902 186.541 82.8462 186.061 82.5582 185.719C82.2762 185.377 81.8442 185.206 81.2622 185.206C80.8302 185.206 80.4282 185.305 80.0562 185.503C79.6902 185.701 79.3452 185.971 79.0212 186.313V193H77.0862V183.82H78.2562C78.5202 183.82 78.6882 183.943 78.7602 184.189L78.8952 185.035ZM93.0351 186.079C92.7651 185.731 92.4681 185.488 92.1441 185.35C91.8201 185.212 91.4691 185.143 91.0911 185.143C90.3351 185.143 89.7441 185.422 89.3181 185.98C88.8921 186.532 88.6791 187.351 88.6791 188.437C88.6791 189.001 88.7271 189.484 88.8231 189.886C88.9191 190.282 89.0571 190.606 89.2371 190.858C89.4171 191.11 89.6361 191.293 89.8941 191.407C90.1521 191.521 90.4431 191.578 90.7671 191.578C91.2591 191.578 91.6821 191.473 92.0361 191.263C92.3961 191.047 92.7291 190.744 93.0351 190.354V186.079ZM94.9701 179.68V193H93.8001C93.5421 193 93.3771 192.877 93.3051 192.631L93.1341 191.632C92.7501 192.082 92.3121 192.445 91.8201 192.721C91.3341 192.997 90.7671 193.135 90.1191 193.135C89.6031 193.135 89.1351 193.033 88.7151 192.829C88.2951 192.619 87.9351 192.316 87.6351 191.92C87.3351 191.524 87.1011 191.035 86.9331 190.453C86.7711 189.865 86.6901 189.193 86.6901 188.437C86.6901 187.753 86.7801 187.12 86.9601 186.538C87.1461 185.956 87.4101 185.452 87.7521 185.026C88.0941 184.594 88.5081 184.258 88.9941 184.018C89.4861 183.772 90.0351 183.649 90.6411 183.649C91.1811 183.649 91.6401 183.736 92.0181 183.91C92.3961 184.078 92.7351 184.315 93.0351 184.621V179.68H94.9701ZM110.553 181.795H106.512V193H104.415V181.795H100.365V180.04H110.553V181.795ZM111.925 185.521C112.213 184.939 112.561 184.483 112.969 184.153C113.377 183.817 113.866 183.649 114.436 183.649C114.634 183.649 114.82 183.673 114.994 183.721C115.168 183.763 115.324 183.829 115.462 183.919L115.327 185.377C115.303 185.479 115.264 185.551 115.21 185.593C115.162 185.629 115.096 185.647 115.012 185.647C114.922 185.647 114.793 185.632 114.625 185.602C114.457 185.566 114.28 185.548 114.094 185.548C113.824 185.548 113.584 185.587 113.374 185.665C113.17 185.743 112.984 185.857 112.816 186.007C112.654 186.157 112.51 186.34 112.384 186.556C112.258 186.772 112.141 187.018 112.033 187.294V193H110.098V183.82H111.223C111.427 183.82 111.568 183.859 111.646 183.937C111.724 184.009 111.778 184.138 111.808 184.324L111.925 185.521ZM121.507 188.986C120.817 189.01 120.235 189.067 119.761 189.157C119.287 189.241 118.903 189.352 118.609 189.49C118.315 189.622 118.102 189.781 117.97 189.967C117.844 190.153 117.781 190.357 117.781 190.579C117.781 190.795 117.814 190.981 117.88 191.137C117.952 191.287 118.048 191.413 118.168 191.515C118.294 191.611 118.438 191.683 118.6 191.731C118.768 191.773 118.951 191.794 119.149 191.794C119.653 191.794 120.085 191.701 120.445 191.515C120.811 191.323 121.165 191.047 121.507 190.687V188.986ZM116.377 185.098C117.415 184.132 118.651 183.649 120.085 183.649C120.613 183.649 121.081 183.736 121.489 183.91C121.903 184.078 122.248 184.318 122.524 184.63C122.806 184.942 123.019 185.314 123.163 185.746C123.313 186.172 123.388 186.646 123.388 187.168V193H122.524C122.338 193 122.197 192.973 122.101 192.919C122.005 192.859 121.924 192.742 121.858 192.568L121.669 191.821C121.435 192.031 121.204 192.22 120.976 192.388C120.748 192.55 120.511 192.688 120.265 192.802C120.025 192.916 119.764 193 119.482 193.054C119.206 193.114 118.9 193.144 118.564 193.144C118.192 193.144 117.844 193.093 117.52 192.991C117.202 192.889 116.926 192.736 116.692 192.532C116.458 192.322 116.272 192.064 116.134 191.758C116.002 191.452 115.936 191.092 115.936 190.678C115.936 190.324 116.029 189.979 116.215 189.643C116.407 189.307 116.719 189.007 117.151 188.743C117.589 188.473 118.162 188.251 118.87 188.077C119.584 187.903 120.463 187.804 121.507 187.78V187.168C121.507 186.508 121.366 186.016 121.084 185.692C120.802 185.368 120.388 185.206 119.842 185.206C119.47 185.206 119.158 185.254 118.906 185.35C118.654 185.44 118.435 185.539 118.249 185.647C118.063 185.755 117.898 185.857 117.754 185.953C117.61 186.043 117.457 186.088 117.295 186.088C117.163 186.088 117.049 186.055 116.953 185.989C116.863 185.917 116.788 185.83 116.728 185.728L116.377 185.098ZM133.526 183.82L129.836 193H128.09L124.4 183.82H125.993C126.143 183.82 126.266 183.859 126.362 183.937C126.464 184.009 126.53 184.096 126.56 184.198L128.594 189.544C128.678 189.796 128.753 190.045 128.819 190.291C128.885 190.537 128.942 190.786 128.99 191.038C129.038 190.786 129.095 190.54 129.161 190.3C129.233 190.054 129.311 189.802 129.395 189.544L131.465 184.198C131.501 184.09 131.567 184 131.663 183.928C131.759 183.856 131.876 183.82 132.014 183.82H133.526ZM140.605 187.375C140.605 187.051 140.557 186.751 140.461 186.475C140.371 186.193 140.236 185.95 140.056 185.746C139.876 185.536 139.651 185.374 139.381 185.26C139.117 185.14 138.811 185.08 138.463 185.08C137.761 185.08 137.209 185.281 136.807 185.683C136.405 186.085 136.15 186.649 136.042 187.375H140.605ZM135.988 188.563C136.012 189.085 136.093 189.538 136.231 189.922C136.369 190.3 136.552 190.615 136.78 190.867C137.014 191.119 137.29 191.308 137.608 191.434C137.932 191.554 138.292 191.614 138.688 191.614C139.066 191.614 139.393 191.572 139.669 191.488C139.945 191.398 140.185 191.302 140.389 191.2C140.593 191.092 140.767 190.996 140.911 190.912C141.055 190.822 141.187 190.777 141.307 190.777C141.463 190.777 141.583 190.837 141.667 190.957L142.216 191.668C141.988 191.938 141.73 192.166 141.442 192.352C141.154 192.538 140.848 192.691 140.524 192.811C140.2 192.925 139.867 193.006 139.525 193.054C139.183 193.108 138.85 193.135 138.526 193.135C137.89 193.135 137.299 193.03 136.753 192.82C136.213 192.604 135.742 192.289 135.34 191.875C134.944 191.461 134.632 190.948 134.404 190.336C134.182 189.724 134.071 189.019 134.071 188.221C134.071 187.585 134.17 186.991 134.368 186.439C134.572 185.887 134.86 185.407 135.232 184.999C135.61 184.591 136.066 184.27 136.6 184.036C137.14 183.796 137.749 183.676 138.427 183.676C138.991 183.676 139.513 183.769 139.993 183.955C140.473 184.135 140.887 184.402 141.235 184.756C141.583 185.11 141.853 185.545 142.045 186.061C142.243 186.571 142.342 187.153 142.342 187.807C142.342 188.107 142.309 188.308 142.243 188.41C142.177 188.512 142.057 188.563 141.883 188.563H135.988ZM146.118 179.68V193H144.183V179.68H146.118ZM159.609 188.14L157.827 183.406C157.683 183.04 157.536 182.575 157.386 182.011C157.32 182.293 157.248 182.554 157.17 182.794C157.092 183.028 157.02 183.235 156.954 183.415L155.172 188.14H159.609ZM163.596 193H161.967C161.781 193 161.631 192.955 161.517 192.865C161.403 192.769 161.316 192.652 161.256 192.514L160.176 189.652H154.596L153.516 192.514C153.468 192.634 153.384 192.745 153.264 192.847C153.144 192.949 152.994 193 152.814 193H151.185L156.324 180.04H158.457L163.596 193ZM168.024 188.329C168.624 188.329 169.074 188.176 169.374 187.87C169.674 187.564 169.824 187.165 169.824 186.673C169.824 186.169 169.674 185.77 169.374 185.476C169.074 185.182 168.624 185.035 168.024 185.035C167.43 185.035 166.98 185.182 166.674 185.476C166.374 185.77 166.224 186.169 166.224 186.673C166.224 186.913 166.263 187.135 166.341 187.339C166.419 187.543 166.533 187.72 166.683 187.87C166.833 188.014 167.019 188.128 167.241 188.212C167.469 188.29 167.73 188.329 168.024 188.329ZM170.715 193.45C170.715 193.246 170.655 193.084 170.535 192.964C170.421 192.838 170.265 192.742 170.067 192.676C169.869 192.604 169.638 192.553 169.374 192.523C169.11 192.487 168.828 192.463 168.528 192.451C168.234 192.433 167.931 192.418 167.619 192.406C167.313 192.388 167.016 192.358 166.728 192.316C166.44 192.466 166.203 192.646 166.017 192.856C165.837 193.066 165.747 193.309 165.747 193.585C165.747 193.765 165.792 193.933 165.882 194.089C165.978 194.245 166.122 194.38 166.314 194.494C166.512 194.608 166.761 194.698 167.061 194.764C167.367 194.83 167.733 194.863 168.159 194.863C169.011 194.863 169.65 194.731 170.076 194.467C170.502 194.203 170.715 193.864 170.715 193.45ZM172.659 184.153V184.873C172.659 185.113 172.515 185.26 172.227 185.314L171.309 185.467C171.465 185.815 171.543 186.202 171.543 186.628C171.543 187.078 171.453 187.486 171.273 187.852C171.099 188.218 170.856 188.53 170.544 188.788C170.232 189.046 169.86 189.244 169.428 189.382C168.996 189.52 168.528 189.589 168.024 189.589C167.832 189.589 167.643 189.58 167.457 189.562C167.277 189.538 167.1 189.508 166.926 189.472C166.752 189.574 166.623 189.682 166.539 189.796C166.455 189.91 166.413 190.027 166.413 190.147C166.413 190.345 166.5 190.492 166.674 190.588C166.848 190.684 167.076 190.753 167.358 190.795C167.646 190.837 167.973 190.864 168.339 190.876C168.705 190.888 169.077 190.909 169.455 190.939C169.833 190.969 170.205 191.02 170.571 191.092C170.937 191.158 171.261 191.272 171.543 191.434C171.831 191.59 172.062 191.803 172.236 192.073C172.41 192.343 172.497 192.694 172.497 193.126C172.497 193.522 172.398 193.909 172.2 194.287C172.002 194.665 171.714 195.001 171.336 195.295C170.964 195.589 170.508 195.823 169.968 195.997C169.428 196.177 168.813 196.267 168.123 196.267C167.439 196.267 166.842 196.201 166.332 196.069C165.828 195.937 165.405 195.757 165.063 195.529C164.727 195.307 164.475 195.049 164.307 194.755C164.145 194.461 164.064 194.155 164.064 193.837C164.064 193.405 164.199 193.036 164.469 192.73C164.745 192.424 165.117 192.184 165.585 192.01C165.333 191.89 165.129 191.725 164.973 191.515C164.823 191.305 164.748 191.029 164.748 190.687C164.748 190.417 164.847 190.135 165.045 189.841C165.243 189.547 165.54 189.298 165.936 189.094C165.48 188.842 165.12 188.509 164.856 188.095C164.592 187.675 164.46 187.186 164.46 186.628C164.46 186.172 164.547 185.761 164.721 185.395C164.901 185.029 165.15 184.717 165.468 184.459C165.786 184.201 166.161 184.003 166.593 183.865C167.031 183.727 167.508 183.658 168.024 183.658C168.816 183.658 169.506 183.823 170.094 184.153H172.659ZM180.051 187.375C180.051 187.051 180.003 186.751 179.907 186.475C179.817 186.193 179.682 185.95 179.502 185.746C179.322 185.536 179.097 185.374 178.827 185.26C178.563 185.14 178.257 185.08 177.909 185.08C177.207 185.08 176.655 185.281 176.253 185.683C175.851 186.085 175.596 186.649 175.488 187.375H180.051ZM175.434 188.563C175.458 189.085 175.539 189.538 175.677 189.922C175.815 190.3 175.998 190.615 176.226 190.867C176.46 191.119 176.736 191.308 177.054 191.434C177.378 191.554 177.738 191.614 178.134 191.614C178.512 191.614 178.839 191.572 179.115 191.488C179.391 191.398 179.631 191.302 179.835 191.2C180.039 191.092 180.213 190.996 180.357 190.912C180.501 190.822 180.633 190.777 180.753 190.777C180.909 190.777 181.029 190.837 181.113 190.957L181.662 191.668C181.434 191.938 181.176 192.166 180.888 192.352C180.6 192.538 180.294 192.691 179.97 192.811C179.646 192.925 179.313 193.006 178.971 193.054C178.629 193.108 178.296 193.135 177.972 193.135C177.336 193.135 176.745 193.03 176.199 192.82C175.659 192.604 175.188 192.289 174.786 191.875C174.39 191.461 174.078 190.948 173.85 190.336C173.628 189.724 173.517 189.019 173.517 188.221C173.517 187.585 173.616 186.991 173.814 186.439C174.018 185.887 174.306 185.407 174.678 184.999C175.056 184.591 175.512 184.27 176.046 184.036C176.586 183.796 177.195 183.676 177.873 183.676C178.437 183.676 178.959 183.769 179.439 183.955C179.919 184.135 180.333 184.402 180.681 184.756C181.029 185.11 181.299 185.545 181.491 186.061C181.689 186.571 181.788 187.153 181.788 187.807C181.788 188.107 181.755 188.308 181.689 188.41C181.623 188.512 181.503 188.563 181.329 188.563H175.434ZM185.401 185.035C185.599 184.831 185.803 184.648 186.013 184.486C186.229 184.318 186.457 184.174 186.697 184.054C186.937 183.934 187.192 183.841 187.462 183.775C187.732 183.709 188.026 183.676 188.344 183.676C188.848 183.676 189.289 183.76 189.667 183.928C190.051 184.096 190.372 184.333 190.63 184.639C190.894 184.945 191.092 185.314 191.224 185.746C191.356 186.172 191.422 186.643 191.422 187.159V193H189.496V187.159C189.496 186.541 189.352 186.061 189.064 185.719C188.782 185.377 188.35 185.206 187.768 185.206C187.336 185.206 186.934 185.305 186.562 185.503C186.196 185.701 185.851 185.971 185.527 186.313V193H183.592V183.82H184.762C185.026 183.82 185.194 183.943 185.266 184.189L185.401 185.035ZM200.171 185.62C200.111 185.698 200.054 185.758 200 185.8C199.946 185.842 199.868 185.863 199.766 185.863C199.664 185.863 199.556 185.827 199.442 185.755C199.334 185.683 199.202 185.605 199.046 185.521C198.896 185.431 198.713 185.35 198.497 185.278C198.281 185.206 198.011 185.17 197.687 185.17C197.267 185.17 196.898 185.245 196.58 185.395C196.268 185.545 196.004 185.761 195.788 186.043C195.578 186.319 195.419 186.658 195.311 187.06C195.209 187.456 195.158 187.903 195.158 188.401C195.158 188.917 195.215 189.376 195.329 189.778C195.443 190.18 195.605 190.519 195.815 190.795C196.031 191.071 196.289 191.281 196.589 191.425C196.895 191.569 197.237 191.641 197.615 191.641C197.987 191.641 198.29 191.596 198.524 191.506C198.758 191.416 198.953 191.317 199.109 191.209C199.265 191.101 199.397 191.002 199.505 190.912C199.619 190.822 199.739 190.777 199.865 190.777C200.021 190.777 200.141 190.837 200.225 190.957L200.774 191.668C200.552 191.938 200.306 192.166 200.036 192.352C199.766 192.538 199.481 192.691 199.181 192.811C198.881 192.925 198.569 193.006 198.245 193.054C197.921 193.108 197.594 193.135 197.264 193.135C196.694 193.135 196.16 193.03 195.662 192.82C195.17 192.604 194.738 192.295 194.366 191.893C194 191.485 193.709 190.99 193.493 190.408C193.283 189.82 193.178 189.151 193.178 188.401C193.178 187.723 193.274 187.096 193.466 186.52C193.658 185.938 193.937 185.437 194.303 185.017C194.675 184.597 195.134 184.27 195.68 184.036C196.226 183.796 196.856 183.676 197.57 183.676C198.236 183.676 198.821 183.784 199.325 184C199.835 184.216 200.288 184.522 200.684 184.918L200.171 185.62ZM210.475 183.82L205.417 195.61C205.351 195.748 205.27 195.856 205.174 195.934C205.084 196.012 204.943 196.051 204.751 196.051H203.32L205.012 192.379L201.268 183.82H202.951C203.113 183.82 203.236 183.859 203.32 183.937C203.41 184.009 203.476 184.096 203.518 184.198L205.705 189.409C205.759 189.559 205.807 189.709 205.849 189.859C205.897 190.003 205.942 190.153 205.984 190.309C206.032 190.153 206.08 190 206.128 189.85C206.176 189.7 206.23 189.55 206.29 189.4L208.387 184.198C208.429 184.09 208.498 184 208.594 183.928C208.696 183.856 208.807 183.82 208.927 183.82H210.475Z" fill="white"/>
</g>
</g>
</svg>
