<svg width="40" height="40" viewBox="0 0 40 40" fill="none" xmlns="http://www.w3.org/2000/svg">
<path d="M39.7558 37.3991L28.1361 25.7794C30.34 23.0585 31.6666 19.5995 31.6666 15.8334C31.6666 7.10289 24.5638 0 15.8333 0C7.10281 0 0 7.10289 0 15.8334C0 24.5638 7.10289 31.6667 15.8334 31.6667C19.5995 31.6667 23.0585 30.34 25.7794 28.1362L37.3991 39.7559C37.7246 40.0812 38.2521 40.0812 38.5777 39.7559L39.7559 38.5776C40.0812 38.2521 40.0812 37.7245 39.7558 37.3991ZM15.8334 28.3334C8.94047 28.3334 3.33336 22.7263 3.33336 15.8334C3.33336 8.94047 8.94047 3.33336 15.8334 3.33336C22.7263 3.33336 28.3334 8.94047 28.3334 15.8334C28.3334 22.7263 22.7263 28.3334 15.8334 28.3334Z" fill="white"/>
</svg>
